<svg width="41" height="41" viewBox="0 0 41 41" fill="none" xmlns="http://www.w3.org/2000/svg">
<path d="M30.6931 0.0166016H10.2744C4.61697 0.0166016 0 4.63357 0 10.291V30.7422C0 36.3671 4.61697 40.9841 10.2744 40.9841H30.7256C36.383 40.9841 41 36.3671 41 30.7097V10.291C40.9675 4.63357 36.3505 0.0166016 30.6931 0.0166016ZM33.1642 17.8667V28.3362C33.1642 31.0674 31.0508 33.1808 28.3196 33.1808H12.6479C9.91673 33.1808 7.80333 31.0674 7.80333 28.3362V17.8667V12.6645C7.80333 9.93334 9.91673 7.81993 12.6479 7.81993H28.3196C31.0508 7.81993 33.1642 9.93334 33.1642 12.6645V17.8667Z" fill="black"/>
</svg>
