<svg width="263" height="121" viewBox="0 0 263 121" fill="none" xmlns="http://www.w3.org/2000/svg">
<g clip-path="url(#clip0)">
<path d="M257.521 12.5857C254.495 12.5857 252.042 13.7144 252.042 15.1066C251.963 47.112 195.588 73.0486 126.023 73.0848H18.7093L75.1112 47.1408C77.2131 46.1395 77.153 44.5436 74.9766 43.5763C72.8531 42.6329 69.4871 42.6329 67.3641 43.5763L1.61513 73.8259C-0.527365 74.809 -0.531474 76.4051 1.60537 77.3908C1.60845 77.3922 1.61205 77.3939 1.61513 77.3953L67.3641 107.645C69.4665 108.646 72.9348 108.674 75.1117 107.707C77.2881 106.739 77.3482 105.144 75.2463 104.142C75.2021 104.121 75.1574 104.101 75.1117 104.08L18.7093 78.1263H126.022C201.638 78.0873 262.915 49.8952 263 15.1063C263 13.7144 260.547 12.5857 257.521 12.5857Z" fill="white" fill-opacity="0.12"/>
<path d="M71.2323 108.376C69.7782 108.377 68.3825 108.112 67.3531 107.64L1.60417 77.3901C-0.534724 76.4058 -0.534724 74.8101 1.60417 73.8256L67.3531 43.5761C69.5295 42.609 72.9983 42.6367 75.1007 43.638C77.1513 44.615 77.1513 46.1636 75.1007 47.1403L13.231 75.6056L75.1007 104.07C77.2432 105.054 77.2473 106.65 75.1105 107.635C74.0827 108.109 72.6875 108.376 71.2323 108.376Z" fill="white" fill-opacity="0.28"/>
<path d="M126.022 78.1263H5.48203C2.45604 78.1263 0.0027771 76.9976 0.0027771 75.6054C0.0027771 74.2132 2.45604 73.0845 5.48203 73.0845H126.022C195.588 73.0484 251.963 47.1117 252.041 15.1063C252.041 13.7141 254.494 12.5854 257.52 12.5854C260.546 12.5854 262.999 13.7141 262.999 15.1063C262.914 49.8952 201.637 78.0875 126.022 78.1263Z" fill="white" fill-opacity="0.38"/>
</g>
<defs>
<clipPath id="clip0">
<rect width="263" height="121" fill="white"/>
</clipPath>
</defs>
</svg>
