<svg width="41" height="41" viewBox="0 0 41 41" fill="none" xmlns="http://www.w3.org/2000/svg">
<path d="M38.3874 0H2.61838C1.17176 0 0 1.17176 0 2.61548V38.3845C0 39.8282 1.17176 41 2.61838 41H38.3845C39.8282 41 41 39.8282 41 38.3845V2.61548C41.0029 1.16887 39.8311 0 38.3874 0ZM34.0099 24.9831C34.7593 25.7469 36.3853 27.0286 36.0902 28.3334C35.8182 29.5312 34.0302 29.0943 32.2943 29.1638C30.3124 29.2477 29.1377 29.2911 27.9457 28.3334C27.3844 27.8792 27.0546 27.341 26.5165 26.7393C26.0275 26.1953 25.4113 25.2203 24.5722 25.2579C23.0648 25.3331 23.5364 27.4336 23.0012 28.8658C14.6224 30.1851 11.2576 25.0091 8.28911 19.9865C6.85117 17.5532 4.77383 12.3281 4.77383 12.3281L10.6992 12.3078C10.6992 12.3078 12.6 15.7652 13.1034 16.6563C13.5316 17.4144 14.0032 18.0162 14.4893 18.6932C14.8973 19.2545 15.5424 20.3539 16.2484 20.2642C17.397 20.1166 17.6053 15.6611 16.8936 14.1682C16.61 13.5635 15.9301 13.3523 15.2271 13.1469C15.4643 11.6482 21.8728 11.3357 22.9086 12.4988C24.4131 14.1884 21.8671 18.8928 23.927 20.2642C26.8203 18.7481 29.2911 12.4004 29.2911 12.4004L36.2291 12.4438C36.2291 12.4438 35.1441 15.8752 34.0071 17.397C33.3445 18.2881 31.1456 20.2729 31.2324 21.7455C31.3019 22.9115 33.0899 24.0457 34.0099 24.9831Z" fill="#030104"/>
</svg>
